<svg width="18" height="14" viewBox="0 0 18 14" fill="none" xmlns="http://www.w3.org/2000/svg">
<path d="M17.0143 1.84589C16.387 2.12108 15.7185 2.30349 15.0215 2.39206C15.7385 1.96398 16.2857 1.29127 16.543 0.480447C15.8745 0.879007 15.1365 1.16053 14.3499 1.31763C13.7151 0.641769 12.8105 0.223175 11.8236 0.223175C9.90877 0.223175 8.36725 1.77735 8.36725 3.68264C8.36725 3.95678 8.39045 4.22038 8.44739 4.47132C5.57206 4.33109 3.02781 2.953 1.31864 0.853702C1.02024 1.37141 0.845214 1.96398 0.845214 2.60189C0.845214 3.79968 1.46203 4.86145 2.38146 5.47616C1.8258 5.46562 1.28068 5.30429 0.818854 5.05019C0.818854 5.06073 0.818854 5.07444 0.818854 5.08814C0.818854 6.76885 2.0177 8.16486 3.5898 8.48645C3.30828 8.56342 3.00145 8.60033 2.68302 8.60033C2.4616 8.60033 2.23807 8.58767 2.02824 8.54128C2.47636 9.91094 3.74796 10.9179 5.25996 10.9506C4.08325 11.8711 2.58918 12.4257 0.971741 12.4257C0.68811 12.4257 0.416076 12.413 0.144043 12.3782C1.67608 13.3662 3.49174 13.9303 5.44975 13.9303C11.8141 13.9303 15.2936 8.65832 15.2936 4.08858C15.2936 3.93569 15.2883 3.78808 15.2809 3.64152C15.9673 3.15439 16.5441 2.546 17.0143 1.84589Z" fill="white"/>
</svg>
