<svg width="21" height="13" viewBox="0 0 21 13" fill="none" xmlns="http://www.w3.org/2000/svg">
<path d="M20.667 10.9741C20.6118 10.8818 20.2708 10.1407 18.6296 8.61747C16.9115 7.02244 17.1422 7.28144 19.2117 4.52347C20.4721 2.84382 20.976 1.81807 20.8183 1.37957C20.6682 0.961575 19.7412 1.07184 19.7412 1.07184L16.6589 1.08979C16.6589 1.08979 16.4306 1.05902 16.2601 1.16031C16.0947 1.26032 15.9883 1.49111 15.9883 1.49111C15.9883 1.49111 15.4998 2.79125 14.8484 3.89648C13.4752 6.22877 12.9252 6.35186 12.7008 6.20697C12.1789 5.86976 12.3097 4.85043 12.3097 4.12728C12.3097 1.86679 12.6521 0.924391 11.6417 0.680777C11.3058 0.6 11.0596 0.546148 10.2018 0.537173C9.10169 0.525633 8.16955 0.54102 7.64257 0.798738C7.29126 0.97055 7.02072 1.35392 7.18612 1.37572C7.38998 1.40264 7.85157 1.50009 8.09647 1.83346C8.41316 2.26299 8.40162 3.22975 8.40162 3.22975C8.40162 3.22975 8.58369 5.89027 7.97722 6.22108C7.56051 6.44802 6.98994 5.98516 5.76546 3.86828C5.13848 2.78483 4.66407 1.586 4.66407 1.586C4.66407 1.586 4.57303 1.3629 4.4102 1.24365C4.21274 1.09877 3.93579 1.05261 3.93579 1.05261L1.00473 1.07056C1.00473 1.07056 0.56494 1.08338 0.403385 1.27443C0.259781 1.44496 0.391846 1.79627 0.391846 1.79627C0.391846 1.79627 2.68695 7.16476 5.28464 9.87144C7.66822 12.3525 10.3736 12.1896 10.3736 12.1896H11.5994C11.5994 12.1896 11.9699 12.1486 12.1584 11.9447C12.3328 11.7575 12.3264 11.4062 12.3264 11.4062C12.3264 11.4062 12.302 9.76118 13.0662 9.51884C13.8188 9.28036 14.7856 11.1087 15.8101 11.8127C16.5845 12.3448 17.173 12.2281 17.173 12.2281L19.913 12.1896C19.913 12.1896 21.3465 12.1012 20.667 10.9741Z" fill="white"/>
</svg>
